# 3ds Max Wavefront OBJ Exporter v0.99 - (c)2007 guruware
# File Created: 18.05.2021 17:01:01

#
# object Cone001
#

v  0.2399 0.0000 -0.3359
v  0.2399 0.0000 -5.3359
v  3.7755 0.0000 -3.8715
v  5.2399 0.0000 -0.3359
v  -4.7601 0.0000 -0.3359
v  -3.2956 0.0000 -3.8715
v  0.2399 0.0000 4.6641
v  -3.2956 0.0000 3.1996
v  3.7755 0.0000 3.1996
v  3.0684 6.0000 -3.1644
v  4.2399 6.0000 -0.3359
v  0.2399 6.0000 -4.3359
v  -2.5885 6.0000 -3.1644
v  -3.7601 6.0000 -0.3359
v  -2.5885 6.0000 2.4925
v  0.2399 6.0000 3.6641
v  3.0684 6.0000 2.4925
v  2.3613 12.0000 -2.4572
v  3.2399 12.0000 -0.3359
v  0.2399 12.0000 -3.3359
v  -1.8814 12.0000 -2.4572
v  -2.7601 12.0000 -0.3359
v  -1.8814 12.0000 1.7854
v  0.2399 12.0000 2.6641
v  2.3613 12.0000 1.7854
v  1.6542 18.0000 -1.7501
v  2.2399 18.0000 -0.3359
v  0.2399 18.0000 -2.3359
v  -1.1743 18.0000 -1.7501
v  -1.7601 18.0000 -0.3359
v  -1.1743 18.0000 1.0783
v  0.2399 18.0000 1.6641
v  1.6542 18.0000 1.0783
v  0.9471 24.0000 -1.0430
v  1.2399 24.0000 -0.3359
v  0.2399 24.0000 -1.3359
v  -0.4672 24.0000 -1.0430
v  -0.7601 24.0000 -0.3359
v  -0.4672 24.0000 0.3712
v  0.2399 24.0000 0.6641
v  0.9471 24.0000 0.3712
v  0.2399 30.0000 -0.3359
# 42 vertices

vn 0.0000 -1.0000 -0.0000
vn -0.0000 -0.5674 -0.8235
vn 0.5823 -0.5674 -0.5823
vn 0.8235 -0.5674 0.0000
vn -0.8235 -0.5674 0.0000
vn -0.5823 -0.5674 -0.5823
vn -0.0000 -0.5674 0.8235
vn -0.5823 -0.5674 0.5823
vn 0.5823 -0.5674 0.5823
vn 0.6975 0.1644 -0.6975
vn 0.9864 0.1644 -0.0000
vn -0.0000 0.1644 -0.9864
vn -0.6975 0.1644 -0.6975
vn -0.9864 0.1644 0.0000
vn -0.6975 0.1644 0.6975
vn -0.0000 0.1644 0.9864
vn 0.6975 0.1644 0.6975
vn 1.0000 0.0000 -0.0000
# 18 vertex normals

vt 0.5000 0.0000 0.0000
vt 0.7803 0.0000 0.4142
vt 0.8750 0.0000 1.0000
vt 0.7500 0.0000 1.0000
vt 0.2500 0.0000 1.0000
vt 0.1250 0.0000 1.0000
vt 0.0000 0.0000 1.0000
vt 0.5000 0.0000 1.0000
vt 0.3750 0.0000 1.0000
vt 0.6250 0.0000 1.0000
vt 0.8750 0.2000 0.8000
vt 0.7500 0.2000 0.8000
vt -0.1250 0.0000 1.0000
vt 0.0000 0.2000 0.8000
vt -0.1250 0.2000 0.8000
vt 0.1250 0.2000 0.8000
vt 0.2500 0.2000 0.8000
vt 0.3750 0.2000 0.8000
vt 0.5000 0.2000 0.8000
vt 0.6250 0.2000 0.8000
vt 0.8750 0.4000 0.6000
vt 0.7500 0.4000 0.6000
vt 0.0000 0.4000 0.6000
vt -0.1250 0.4000 0.6000
vt 0.1250 0.4000 0.6000
vt 0.2500 0.4000 0.6000
vt 0.3750 0.4000 0.6000
vt 0.5000 0.4000 0.6000
vt 0.6250 0.4000 0.6000
vt 0.8750 0.6000 0.4000
vt 0.7500 0.6000 0.4000
vt 0.0000 0.6000 0.4000
vt -0.1250 0.6000 0.4000
vt 0.1250 0.6000 0.4000
vt 0.2500 0.6000 0.4000
vt 0.3750 0.6000 0.4000
vt 0.5000 0.6000 0.4000
vt 0.6250 0.6000 0.4000
vt 0.8750 0.8000 0.2000
vt 0.7500 0.8000 0.2000
vt 0.0000 0.8000 0.2000
vt -0.1250 0.8000 0.2000
vt 0.1250 0.8000 0.2000
vt 0.2500 0.8000 0.2000
vt 0.3750 0.8000 0.2000
vt 0.5000 0.8000 0.2000
vt 0.6250 0.8000 0.2000
vt 0.5000 1.0000 0.0000
# 48 texture coords

o Cone001
g Cone001
s 1
f 1/1/1 2/2/2 3/3/3 4/4/4 
f 1/1/1 5/5/5 6/6/6 2/7/2 
f 1/1/1 7/8/7 8/9/8 5/5/5 
f 1/1/1 4/4/4 9/10/9 7/8/7 
s off
f 4/4/4 3/3/3 10/11/10 11/12/11 
f 3/13/3 2/7/2 12/14/12 10/15/10 
f 2/7/2 6/6/6 13/16/13 12/14/12 
f 6/6/6 5/5/5 14/17/14 13/16/13 
f 5/5/5 8/9/8 15/18/15 14/17/14 
f 8/9/8 7/8/7 16/19/16 15/18/15 
f 7/8/7 9/10/9 17/20/17 16/19/16 
f 9/10/9 4/4/4 11/12/11 17/20/17 
f 11/12/11 10/11/10 18/21/10 19/22/11 
f 10/15/10 12/14/12 20/23/12 18/24/10 
f 12/14/12 13/16/13 21/25/13 20/23/12 
f 13/16/13 14/17/14 22/26/14 21/25/13 
f 14/17/14 15/18/15 23/27/15 22/26/14 
f 15/18/15 16/19/16 24/28/16 23/27/15 
f 16/19/16 17/20/17 25/29/17 24/28/16 
f 17/20/17 11/12/11 19/22/11 25/29/17 
f 19/22/11 18/21/10 26/30/10 27/31/11 
f 18/24/10 20/23/12 28/32/12 26/33/10 
f 20/23/12 21/25/13 29/34/13 28/32/12 
f 21/25/13 22/26/14 30/35/14 29/34/13 
f 22/26/14 23/27/15 31/36/15 30/35/14 
f 23/27/15 24/28/16 32/37/16 31/36/15 
f 24/28/16 25/29/17 33/38/17 32/37/16 
f 25/29/17 19/22/11 27/31/11 33/38/17 
f 27/31/11 26/30/10 34/39/10 35/40/11 
f 26/33/10 28/32/12 36/41/12 34/42/10 
f 28/32/12 29/34/13 37/43/13 36/41/12 
f 29/34/13 30/35/14 38/44/14 37/43/13 
f 30/35/14 31/36/15 39/45/15 38/44/14 
f 31/36/15 32/37/16 40/46/16 39/45/15 
f 32/37/16 33/38/17 41/47/17 40/46/16 
f 33/38/17 27/31/11 35/40/11 41/47/17 
f 35/40/11 34/39/10 42/48/18 42/48/18 
f 34/42/10 36/41/12 42/48/18 42/48/18 
f 36/41/12 37/43/13 42/48/18 42/48/18 
f 37/43/13 38/44/14 42/48/18 42/48/18 
f 38/44/14 39/45/15 42/48/18 42/48/18 
f 39/45/15 40/46/16 42/48/18 42/48/18 
f 40/46/16 41/47/17 42/48/18 42/48/18 
f 41/47/17 35/40/11 42/48/18 42/48/18 
s 1
f 42/48/18 42/48/18 42/48/18 42/48/18 
f 42/48/18 42/48/18 42/48/18 42/48/18 
f 42/48/18 42/48/18 42/48/18 42/48/18 
f 42/48/18 42/48/18 42/48/18 42/48/18 
# 48 polygons

